<svg width="130" height="128" viewBox="0 0 130 128" fill="none" xmlns="http://www.w3.org/2000/svg">
<path d="M44.2804 71.1227C38.8608 74.9286 32.5338 77.2678 25.9238 77.9096C24.2734 78.063 22.6149 78.1132 20.9582 78.0599C19.1819 78.0087 17.4243 77.684 15.7486 77.0976C14.8414 76.7616 13.9895 76.2942 13.2206 75.7105C12.3646 75.0671 11.6784 74.2278 11.2205 73.2644C10.7537 72.2689 10.5517 71.1715 10.634 70.0767C10.7256 69.0173 11.0568 67.9919 11.6031 67.0769C12.0931 66.2493 12.7023 65.4972 13.4116 64.8442C14.0679 64.2346 14.7743 63.6804 15.5236 63.1871C16.2503 62.716 17.0043 62.2874 17.7816 61.9036L18.3632 61.6265L18.9221 61.3849L20.0378 60.9057C20.7822 60.5875 21.525 60.2651 22.2885 59.9949L24.5647 59.149C26.106 58.6539 27.6356 58.1213 29.2036 57.7158C30.7555 57.2531 32.341 56.9208 33.9153 56.5471C35.5065 56.252 37.0896 55.9101 38.6959 55.705C40.2937 55.4433 41.9065 55.2997 43.5158 55.1319C44.3228 55.0741 45.1312 55.0347 45.9386 54.9856C46.3426 54.9654 46.7459 54.9319 47.1504 54.9228L48.3638 54.9027L49.6503 54.8818L50.2936 54.873L50.9371 54.8894L53.5108 54.9553C55.2237 55.0714 56.9388 55.1612 58.6435 55.3793C62.0598 55.7535 65.4451 56.3675 68.7738 57.2165C70.4934 57.608 72.1764 58.1433 73.8047 58.8166C74.6519 59.1706 75.4706 59.5882 76.2535 60.0659C77.072 60.5555 77.8309 61.1369 78.5153 61.7986C79.2262 62.4865 79.8348 63.2712 80.3226 64.1291C80.8119 65.0027 81.1561 65.9486 81.3419 66.9306C81.6728 68.8293 81.525 70.7796 80.9118 72.6079C80.5434 73.7764 80.0467 74.9013 79.4305 75.9622C79.1332 76.4878 78.8044 76.9953 78.4459 77.4818L77.3746 78.9073C75.8535 80.7274 74.1135 82.3562 72.1934 83.7575C70.2658 85.0965 68.2134 86.2495 66.0642 87.2009C63.9326 88.1115 61.7413 88.878 59.5052 89.4949C57.279 90.0919 55.0319 90.5637 52.7769 90.9414C50.5207 91.2978 48.2615 91.5803 45.9992 91.7891C41.5015 92.199 36.9253 92.4381 32.3071 92.0998C29.9827 91.9296 27.6753 91.5791 25.4061 91.0515C24.2641 90.7903 23.1357 90.4529 22.0186 90.081C21.4599 89.8909 20.9056 89.6672 20.3498 89.4596C19.8079 89.2171 19.2575 88.9918 18.7237 88.7323C16.5757 87.699 14.5636 86.4086 12.7323 84.8899C10.8701 83.3612 9.25092 81.5628 7.92952 79.5555C5.18246 75.4484 4.09205 70.4682 4.87436 65.6017C5.2565 63.2338 5.97572 60.9316 7.01051 58.7641C8.04478 56.6263 9.33493 54.6198 10.8531 52.7878C12.3722 50.9943 14.0646 49.3524 15.9061 47.8855C17.722 46.4453 19.6382 45.134 21.6406 43.9616C23.6248 42.795 25.6561 41.7354 27.7095 40.7625C28.7361 40.2742 29.7633 39.7984 30.8053 39.3565C31.8465 38.9126 32.8774 38.4455 33.9271 38.0213C38.1167 36.2908 42.3971 34.785 46.7498 33.5102C51.1072 32.2238 55.5404 31.2046 60.0242 30.4583C64.5185 29.7248 69.0574 29.2916 73.6103 29.1616C78.1713 29.0202 82.7363 29.2447 87.2607 29.8329C87.8288 29.8857 88.3906 29.9882 88.9541 30.0778L90.6435 30.3517C91.77 30.5143 92.8941 30.7667 94.0169 30.9972C96.2586 31.5101 98.4699 32.1455 100.641 32.9006C102.817 33.6758 104.937 34.6004 106.983 35.6677C109.043 36.751 110.997 38.0226 112.818 39.4659C115.092 41.2577 117.08 43.3797 118.714 45.7602L119.299 46.6749C119.503 46.9746 119.688 47.2859 119.855 47.6072L120.358 48.5702C120.534 48.8869 120.693 49.2123 120.835 49.5451C121.428 50.8666 121.906 52.2358 122.264 53.6378C122.965 56.4294 123.23 59.3112 123.049 62.1824C122.86 65.0273 122.302 67.8361 121.389 70.5397C120.486 73.2353 119.276 75.8202 117.782 78.2441C116.283 80.6424 114.552 82.8899 112.612 84.9545C108.764 89.0905 104.269 92.5337 99.5504 95.5075C94.8312 98.4847 89.8772 101.079 84.7367 103.266C79.5804 105.466 74.223 107.17 68.7381 108.355C63.217 109.556 57.5646 110.059 51.9161 109.851C49.0781 109.743 46.2536 109.408 43.4701 108.85C42.0791 108.559 40.6943 108.235 39.3289 107.838C38.6475 107.635 37.9625 107.444 37.292 107.207L36.2814 106.866C35.9429 106.745 35.5877 106.616 35.2497 106.475C33.8839 105.921 32.5707 105.248 31.326 104.462C30.065 103.673 28.8898 102.756 27.8195 101.726C26.7043 100.662 25.7615 99.4333 25.0244 98.0838C24.2427 96.6449 23.83 95.0374 23.8227 93.4031C23.8516 91.7523 24.3167 90.1379 25.1716 88.7208C25.9807 87.4291 26.9737 86.2598 28.1197 85.2492C28.6561 84.7558 29.1961 84.2976 29.7488 83.8607L31.3977 82.5319L33.1118 81.2885C33.4002 81.0852 33.6781 80.8665 33.9752 80.6761L34.8629 80.0991C39.5874 77.0007 44.7403 74.5981 50.1607 72.9663L52.1966 72.3856C52.8751 72.1921 53.5687 72.0547 54.254 71.8871L55.2848 71.6467C55.6293 71.5708 55.9784 71.5161 56.3249 71.4498L58.4083 71.0739C61.2008 70.6546 64.0182 70.4189 66.8421 70.3684C67.5477 70.3516 68.254 70.3852 68.9596 70.3915L70.0181 70.4112C70.3706 70.4284 70.7227 70.4578 71.0749 70.4806C71.7796 70.5325 72.4827 70.5718 73.1882 70.6348C73.8953 70.719 74.6041 70.7843 75.3071 70.9042C76.7191 71.115 78.1184 71.4021 79.4988 71.7642C80.1854 71.969 80.8798 72.1404 81.5556 72.3871C81.8948 72.5044 82.2358 72.6155 82.5733 72.7385L83.5762 73.1399C83.9126 73.267 84.2408 73.4177 84.5671 73.5741C84.8938 73.729 85.2231 73.8766 85.5466 74.0384C86.1797 74.3944 86.8325 74.7092 87.4375 75.1204C88.6856 75.8934 89.8443 76.8001 90.8925 77.8242L91.6579 78.6247C91.9163 78.8881 92.1277 79.1964 92.3637 79.4808C92.8226 80.0637 93.2437 80.6749 93.6243 81.3107C93.8079 81.6324 93.967 81.9686 94.1381 82.2974L94.3893 82.7934C94.4666 82.9615 94.5316 83.1349 94.6031 83.3054L94.8112 83.8197L94.9876 84.3461C95.113 84.6946 95.2072 85.0525 95.299 85.4111C95.6596 86.8434 95.8281 88.3165 95.8002 89.7925C95.766 91.25 95.5671 92.699 95.2072 94.1126C94.4745 96.881 93.3142 99.5204 91.7676 101.937C90.26 104.324 88.5136 106.553 86.5549 108.592C85.582 109.609 84.5758 110.596 83.5198 111.524L80.3272 114.219C75.0689 118.443 69.3284 122.04 63.2236 124.937C57.1654 127.818 50.8088 130.037 44.2663 131.555C39.1039 132.782 33.8272 133.476 28.5207 133.626C27.4475 133.631 26.434 133.63 25.4802 133.621L24.7752 133.614C24.5437 133.608 24.3156 133.586 24.0912 133.573L22.7869 133.479C21.9455 133.415 21.1588 133.348 20.4268 133.278C19.6942 133.202 19.0167 133.07 18.3881 132.969C14.7297 132.338 14.8213 131.908 17.9705 131.798C21.1118 131.694 27.3742 131.821 36.0835 130.563C36.7715 130.463 37.4658 130.376 38.1598 130.265C38.8504 130.133 39.5445 130.001 40.2419 129.868C40.9396 129.736 41.6403 129.604 42.344 129.471L44.441 128.972C45.1456 128.817 45.8444 128.628 46.5505 128.461C47.2517 128.276 47.9444 128.052 48.6445 127.849C49.3434 127.642 50.0436 127.434 50.7452 127.226C51.4458 127.015 52.1295 126.749 52.8242 126.514C58.3538 124.605 63.6849 122.173 68.7432 119.25L70.8798 117.988C71.2406 117.785 71.5834 117.554 71.9271 117.324L72.9606 116.639L75.0283 115.269L77.0197 113.792L78.0155 113.054C78.3482 112.809 78.6829 112.566 78.9952 112.296L80.9041 110.716C82.1845 109.689 83.4017 108.586 84.5489 107.414C85.6959 106.252 86.7732 105.025 87.7755 103.738C88.7784 102.462 89.6891 101.117 90.5008 99.713C91.3119 98.3252 91.9906 96.8654 92.5281 95.3526C93.0653 93.862 93.4091 92.3097 93.5511 90.7332C93.847 87.6065 93.0519 84.4738 91.2987 81.8581C90.4266 80.5568 89.3581 79.396 88.1305 78.4163C86.8748 77.4365 85.5128 76.5987 84.0698 75.9182C82.6104 75.2276 81.0912 74.6688 79.5306 74.2486C77.9635 73.8106 76.3667 73.4848 74.7525 73.2738C74.3501 73.2091 73.9437 73.1719 73.5381 73.1292C73.1328 73.0854 72.7278 73.0406 72.3159 73.0236C71.4956 72.9782 70.6761 72.9189 69.8557 72.8839L67.3914 72.8643C66.5703 72.8768 65.7496 72.9285 64.929 72.9582C61.6484 73.1556 58.3907 73.6289 55.191 74.3731L53.9954 74.666C53.597 74.7642 53.1965 74.8542 52.8056 74.9796L50.448 75.6842L48.1273 76.4988C47.3584 76.7821 46.6066 77.1095 45.8456 77.4121C42.8308 78.6916 39.9282 80.2164 37.1674 81.9709C36.4902 82.427 35.7913 82.8522 35.1317 83.3325L33.1583 84.7806C31.8828 85.769 30.6588 86.821 29.4911 87.9326C28.3955 89.0334 27.4967 90.2361 27.0768 91.5405C26.6478 92.858 26.6762 94.2799 27.1573 95.5796C27.6845 96.9544 28.5029 98.2013 29.5573 99.2362C30.6505 100.336 31.8808 101.292 33.2184 102.083C34.5654 102.893 35.9985 103.554 37.4917 104.053C38.2636 104.306 39.0323 104.569 39.8174 104.78C40.5947 105.017 41.3868 105.201 42.1755 105.397C43.7613 105.754 45.359 106.068 46.975 106.27C47.78 106.389 48.592 106.46 49.4013 106.549C49.8065 106.589 50.2139 106.61 50.62 106.642C51.0264 106.672 51.4325 106.704 51.8404 106.715C59.0407 107.06 66.4396 105.988 73.5043 103.98C80.4803 101.957 87.2069 99.1686 93.5593 95.6669C98.5239 92.957 103.293 89.88 107.491 86.1703C109.586 84.3238 111.515 82.2992 113.254 80.1196C114.982 77.9512 116.448 75.5896 117.621 73.0831C119.941 68.0809 120.984 62.4567 120.294 57.0418C119.946 54.3436 119.096 51.7327 117.789 49.3412C116.468 46.9523 114.75 44.8016 112.706 42.9799C110.641 41.142 108.347 39.5723 105.881 38.3088C103.395 37.0285 100.796 35.9785 98.1152 35.1721C95.4224 34.3512 92.6704 33.735 89.8832 33.3288L87.784 33.015C87.0842 32.912 86.3764 32.8648 85.6733 32.7867L83.5609 32.5776L81.4399 32.4631C75.7763 32.1881 70.0991 32.4372 64.4821 33.2072C58.8626 34.0003 53.3106 35.2078 47.8723 36.8195C45.8433 37.392 43.8463 38.0741 41.8465 38.7471L38.8727 39.8346C37.8829 40.2014 36.9092 40.6122 35.9267 40.9988C34.9412 41.3791 33.9764 41.8102 33.007 42.2303C32.0364 42.6485 31.068 43.0713 30.1107 43.5148C28.1979 44.4005 26.319 45.3348 24.4991 46.3512C20.8702 48.3878 17.4611 50.7741 14.6761 53.7269C13.9833 54.4572 13.3306 55.2239 12.7211 56.0237C12.1219 56.8281 11.5688 57.6652 11.0643 58.531C10.0516 60.2475 9.27354 62.0898 8.75067 64.0095C8.23089 65.8977 8.02131 67.8565 8.12996 69.8108C8.26074 71.7431 8.74024 73.6364 9.54567 75.4008C10.3661 77.1879 11.4714 78.8325 12.819 80.2714C14.1804 81.7371 15.7231 83.0264 17.4106 84.1086C19.1058 85.2016 20.9218 86.0983 22.8231 86.7811C24.7536 87.4635 26.743 87.9699 28.7664 88.2941C32.8356 88.9672 37.0356 89.0261 41.2432 88.8091C43.1167 88.7092 45.0135 88.5673 46.8832 88.3747C47.8223 88.2935 48.7519 88.1665 49.6857 88.0593C50.6153 87.9342 51.5436 87.8017 52.4676 87.6532C56.1409 87.0854 59.7476 86.1541 63.2335 84.873C64.0834 84.5278 64.9459 84.2053 65.7605 83.7949C66.1697 83.5941 66.5952 83.4193 66.9918 83.1982L68.1844 82.539C68.5919 82.3333 68.9603 82.0722 69.3418 81.83C69.7176 81.5802 70.1104 81.3514 70.4734 81.0857C71.2035 80.5621 71.9049 80.0002 72.5746 79.4026C72.903 79.0991 73.2498 78.8124 73.5651 78.4965L74.4765 77.5159C74.6252 77.3499 74.7892 77.1959 74.9259 77.0202L75.3329 76.4903L76.1473 75.4313C77.1475 74.0248 77.8758 72.4466 78.2952 70.7768C78.7136 69.2171 78.6151 67.5654 78.0142 66.0656C77.3919 64.6295 76.1911 63.4637 74.7252 62.5759C71.7739 60.7865 67.9864 60.0477 64.3323 59.2932C56.953 57.8792 49.398 57.6 41.9329 58.4653C38.2033 58.8804 34.5102 59.571 30.8845 60.5315C29.984 60.7908 29.0737 61.0195 28.1807 61.303L25.5083 62.1758L22.8761 63.1611C22.0051 63.5054 21.15 63.8876 20.284 64.2447C20.0705 64.3363 19.8472 64.4246 19.6416 64.5187L19.0356 64.805C18.6355 65.0033 18.2452 65.2158 17.8611 65.4369C17.1086 65.8724 16.4007 66.3793 15.7473 66.9507C15.1346 67.476 14.6152 68.0995 14.2108 68.7953C13.8519 69.4129 13.688 70.123 13.7401 70.8339C13.7964 71.5345 14.063 72.2023 14.5057 72.7513C14.9999 73.3557 15.6217 73.8455 16.3273 74.1862C17.0988 74.568 17.9145 74.8547 18.7563 75.04C18.9719 75.0891 19.1895 75.122 19.404 75.186C19.6245 75.2149 19.8433 75.2532 20.065 75.2753C20.5105 75.3247 20.9474 75.3589 21.4048 75.3707C28.8914 75.5878 36.2563 73.4586 42.4514 69.2861C43.2134 68.7588 43.9755 68.2184 44.6586 67.6415C45.345 67.0531 45.9879 66.4166 46.5825 65.7369C47.1632 65.0562 47.6866 64.3293 48.1473 63.5636C48.5826 62.8082 48.9277 62.0051 49.1758 61.1706C49.3974 60.3655 49.4652 59.5264 49.3754 58.6965C49.3378 58.4968 49.3264 58.2907 49.2724 58.095L49.0952 57.5115C49.0271 57.3201 48.9236 57.1411 48.8419 56.954C48.7585 56.7671 48.6593 56.5877 48.5453 56.4175C47.6418 55.0372 46.0924 54.0662 44.4155 53.3746C43.742 53.0968 43.0526 52.8439 42.3372 52.6258C41.6222 52.4126 40.9186 52.1655 40.1981 51.9799C38.7645 51.5836 37.3217 51.2462 35.8698 50.968C32.9868 50.4243 30.0659 50.1007 27.1329 50.0001C21.3986 49.8441 15.6649 50.3305 10.0408 51.4502C-1.02255 53.6123 -11.2586 57.3249 -20.7321 61.1079C-25.0848 62.8724 -27.1462 63.646 -26.9229 63.3112C-26.6893 62.9974 -24.1905 61.5411 -19.2422 59.1979C-17.4863 58.379 -15.7109 57.5695 -13.9111 56.7837C-13.0143 56.3833 -12.0977 56.0233 -11.1814 55.6546C-10.2673 55.2814 -9.34 54.9318 -8.41419 54.5728C-4.69957 53.1663 -0.894341 51.8649 3.00932 50.7865C4.96709 50.2678 6.93574 49.7603 8.93547 49.353C9.9296 49.1273 10.9398 48.962 11.9426 48.7646C12.9546 48.6085 13.9605 48.4163 14.98 48.2926C17.0095 47.9924 19.0627 47.8196 21.1174 47.6813C23.176 47.5813 25.2407 47.5312 27.3059 47.6112C30.7303 47.7164 34.1375 48.1353 37.4841 48.8626C38.3243 49.0516 39.1673 49.2323 39.9968 49.4721L41.2464 49.811L42.4819 50.202C44.2168 50.6949 45.8839 51.3977 47.4455 52.2947C48.2942 52.7929 49.0674 53.4079 49.742 54.1213C50.0893 54.5005 50.4002 54.9107 50.6709 55.3469C50.8086 55.566 50.9306 55.7945 51.036 56.0306C51.1558 56.2601 51.2607 56.497 51.3501 56.7397C51.6981 57.7147 51.86 58.7454 51.8276 59.7791C51.769 60.7651 51.5708 61.7381 51.2388 62.6694C50.917 63.5557 50.502 64.406 50.0007 65.2063C49.5179 65.9873 48.9742 66.7296 48.3745 67.4265C48.067 67.761 47.7757 68.1126 47.4474 68.4255L46.965 68.9056L46.4594 69.3608C46.1291 69.6716 45.7616 69.9426 45.4122 70.2327L44.354 71.0113C44.3318 71.0471 44.3104 71.0808 44.2804 71.1227Z" fill="#6633FF" fill-opacity="0.1"/>
</svg>
