<svg width="129" height="131" viewBox="0 0 129 131" fill="none" xmlns="http://www.w3.org/2000/svg">
<path d="M85.7191 59.4425C91.1387 55.6366 97.4657 53.2973 104.076 52.6555C105.726 52.5021 107.385 52.4519 109.041 52.5052C110.818 52.5565 112.575 52.8811 114.251 53.4675C115.158 53.8035 116.01 54.2709 116.779 54.8546C117.635 55.4981 118.321 56.3373 118.779 57.3007C119.246 58.2962 119.448 59.3936 119.366 60.4884C119.274 61.5478 118.943 62.5732 118.396 63.4882C117.906 64.3158 117.297 65.0679 116.588 65.7209C115.932 66.3305 115.225 66.8848 114.476 67.378C113.749 67.8491 112.995 68.2777 112.218 68.6615L111.636 68.9386L111.077 69.1802L109.962 69.6595C109.217 69.9776 108.474 70.3 107.711 70.5702L105.435 71.4161C103.893 71.9112 102.364 72.4438 100.796 72.8494C99.244 73.312 97.6585 73.6443 96.0842 74.018C94.493 74.3131 92.9099 74.6551 91.3036 74.8601C89.7058 75.1218 88.0931 75.2654 86.4838 75.4332C85.6767 75.491 84.8683 75.5304 84.0609 75.5795C83.6569 75.5997 83.2536 75.6332 82.8492 75.6423L81.6358 75.6624L80.3493 75.6833L79.7059 75.6921L79.0624 75.6757L76.4887 75.6099C74.7758 75.4937 73.0607 75.404 71.356 75.1858C67.9397 74.8116 64.5544 74.1977 61.2257 73.3486C59.5061 72.9571 57.8231 72.4219 56.1948 71.7485C55.3476 71.3946 54.529 70.9769 53.746 70.4992C52.9275 70.0096 52.1686 69.4282 51.4842 68.7665C50.7733 68.0786 50.1647 67.2939 49.6769 66.436C49.1876 65.5625 48.8434 64.6165 48.6576 63.6345C48.3267 61.7359 48.4745 59.7856 49.0877 57.9572C49.4561 56.7887 49.9528 55.6638 50.569 54.6029C50.8663 54.0773 51.1951 53.5699 51.5536 53.0833L52.6249 51.6579C54.146 49.8377 55.886 48.2089 57.8061 46.8077C59.7337 45.4686 61.7861 44.3156 63.9353 43.3643C66.0669 42.4536 68.2583 41.6872 70.4944 41.0702C72.7205 40.4732 74.9676 40.0014 77.2226 39.6237C79.4788 39.2674 81.738 38.9848 84.0003 38.776C88.498 38.3661 93.0742 38.1271 97.6924 38.4653C100.017 38.6355 102.324 38.986 104.593 39.5136C105.735 39.7748 106.864 40.1122 107.981 40.4841C108.54 40.6742 109.094 40.8979 109.65 41.1055C110.192 41.348 110.742 41.5733 111.276 41.8328C113.424 42.8661 115.436 44.1565 117.267 45.6752C119.129 47.2039 120.749 49.0023 122.07 51.0096C124.817 55.1167 125.907 60.0969 125.125 64.9634C124.743 67.3313 124.024 69.6335 122.989 71.801C121.955 73.9388 120.665 75.9453 119.146 77.7773C117.627 79.5708 115.935 81.2127 114.093 82.6796C112.278 84.1198 110.361 85.4311 108.359 86.6036C106.375 87.7701 104.343 88.8297 102.29 89.8026C101.263 90.2909 100.236 90.7667 99.1942 91.2086C98.153 91.6525 97.1221 92.1196 96.0724 92.5438C91.8828 94.2743 87.6024 95.7802 83.2497 97.0549C78.8923 98.3413 74.4591 99.3605 69.9753 100.107C65.4811 100.84 60.9421 101.274 56.3892 101.404C51.8283 101.545 47.2632 101.32 42.7388 100.732C42.1707 100.679 41.6089 100.577 41.0455 100.487L39.3561 100.213C38.2295 100.051 37.1055 99.7984 35.9826 99.5679C33.7409 99.055 31.5296 98.4196 29.3587 97.6645C27.1823 96.8893 25.063 95.9647 23.0161 94.8974C20.9561 93.8141 19.0026 92.5426 17.1811 91.0992C14.9075 89.3074 12.92 87.1854 11.2859 84.8049L10.7001 83.8902C10.4966 83.5906 10.3112 83.2793 10.1447 82.9579L9.6418 81.9949C9.46602 81.6782 9.30664 81.3529 9.16429 81.0201C8.57156 79.6986 8.09359 78.3294 7.73559 76.9273C7.0345 74.1357 6.76977 71.2539 6.95065 68.3827C7.13985 65.5378 7.69774 62.729 8.61055 60.0254C9.51382 57.3298 10.724 54.745 12.2177 52.321C13.7165 49.9227 15.4479 47.6752 17.3874 45.6106C21.2357 41.4746 25.7302 38.0315 30.4491 35.0576C35.1683 32.0804 40.1223 29.4858 45.2628 27.2992C50.4191 25.0991 55.7766 23.3948 61.2614 22.2098C66.7825 21.009 72.4349 20.5065 78.0834 20.7142C80.9214 20.8217 83.7459 21.1566 86.5294 21.7156C87.9204 22.0058 89.3052 22.33 90.6706 22.7272C91.352 22.93 92.0371 23.1207 92.7076 23.3584L93.7181 23.6991C94.0566 23.8197 94.4118 23.9493 94.7498 24.0902C96.1157 24.6438 97.4288 25.3175 98.6735 26.103C99.9346 26.8925 101.11 27.8093 102.18 28.8389C103.295 29.9033 104.238 31.1318 104.975 32.4813C105.757 33.9202 106.17 35.5277 106.177 37.162C106.148 38.8128 105.683 40.4272 104.828 41.8443C104.019 43.136 103.026 44.3053 101.88 45.3159C101.343 45.8093 100.803 46.2675 100.251 46.7044L98.6018 48.0332L96.8877 49.2766C96.5993 49.4799 96.3214 49.6986 96.0243 49.8891L95.1366 50.466C90.4121 53.5644 85.2592 55.967 79.8388 57.5988L77.8029 58.1796C77.1244 58.373 76.4308 58.5104 75.7455 58.678L74.7147 58.9184C74.3702 58.9943 74.0211 59.0491 73.6746 59.1153L71.5912 59.4912C68.7987 59.9105 65.9813 60.1462 63.1574 60.1967C62.4519 60.2135 61.7455 60.18 61.04 60.1736L59.9814 60.154C59.6289 60.1367 59.2768 60.1073 58.9246 60.0845C58.2199 60.0327 57.5168 59.9933 56.8113 59.9303C56.1042 59.8462 55.3954 59.7808 54.6924 59.6609C53.2804 59.4501 51.8811 59.163 50.5007 58.8009C49.8142 58.5961 49.1197 58.4248 48.444 58.178C48.1047 58.0607 47.7637 57.9497 47.4262 57.8266L46.4233 57.4252C46.0869 57.2981 45.7587 57.1474 45.4324 56.991C45.1058 56.8361 44.7764 56.6885 44.4529 56.5267C43.8198 56.1707 43.167 55.8559 42.562 55.4447C41.3139 54.6717 40.1553 53.765 39.107 52.7409L38.3416 51.9405C38.0832 51.6771 37.8718 51.3687 37.6358 51.0843C37.1769 50.5014 36.7558 49.8902 36.3752 49.2544C36.1916 48.9327 36.0326 48.5966 35.8614 48.2677L35.6102 47.7717C35.5329 47.6036 35.4679 47.4302 35.3964 47.2597L35.1883 46.7454L35.0119 46.219C34.8865 45.8705 34.7923 45.5126 34.7006 45.154C34.34 43.7217 34.1714 42.2486 34.1993 40.7727C34.2335 39.3152 34.4324 37.8661 34.7923 36.4525C35.525 33.6841 36.6853 31.0447 38.2319 28.6279C39.7396 26.2416 41.486 24.0119 43.4447 21.9727C44.4175 20.9563 45.4237 19.9691 46.4797 19.0409L49.6723 16.3456C54.9306 12.1218 60.6711 8.52474 66.7759 5.62851C72.8341 2.74719 79.1907 0.527869 85.7332 -0.990289C90.8956 -2.21728 96.1723 -2.91123 101.479 -3.06102C102.552 -3.06628 103.565 -3.06463 104.519 -3.05608L105.224 -3.04866C105.456 -3.04257 105.684 -3.02125 105.908 -3.008L107.213 -2.91424C108.054 -2.85004 108.841 -2.78286 109.573 -2.71273C110.305 -2.63677 110.983 -2.50477 111.611 -2.40388C115.27 -1.77285 115.178 -1.34287 112.029 -1.23256C108.888 -1.12932 102.625 -1.25546 93.916 0.00176716C93.228 0.102131 92.5337 0.189115 91.8397 0.300208C91.1491 0.431846 90.455 0.56416 89.7576 0.697149C89.06 0.828852 88.3592 0.961165 87.6555 1.09409L85.5585 1.59339C84.8539 1.74851 84.1551 1.93687 83.449 2.10397C82.7478 2.28942 82.0551 2.51328 81.3551 2.71617C80.6561 2.9235 79.9559 3.13128 79.2543 3.33951C78.5537 3.55035 77.87 3.81608 77.1753 4.05151C71.6457 5.9598 66.3147 8.39241 61.2563 11.3155L59.1197 12.5775C58.7589 12.7806 58.4161 13.0115 58.0724 13.241L57.0389 13.9263L54.9712 15.2966L52.9798 16.7727L51.984 17.5109C51.6513 17.7563 51.3166 17.999 51.0043 18.2693L49.0954 19.849C47.815 20.8764 46.5979 21.979 45.4506 23.1509C44.3037 24.3128 43.2263 25.5402 42.224 26.8269C41.2212 28.1034 40.3105 29.4485 39.4987 30.8522C38.6876 32.2399 38.0089 33.6997 37.4714 35.2125C36.9342 36.7031 36.5905 38.2554 36.4484 39.832C36.1526 42.9587 36.9476 46.0913 38.7008 48.707C39.5729 50.0083 40.6414 51.1691 41.869 52.1488C43.1247 53.1286 44.4867 53.9664 45.9297 54.6469C47.3891 55.3375 48.9083 55.8963 50.4689 56.3165C52.036 56.7546 53.6328 57.0803 55.247 57.2913C55.6494 57.356 56.0558 57.3932 56.4614 57.4359C56.8667 57.4797 57.2717 57.5245 57.6836 57.5415C58.5039 57.5869 59.3234 57.6462 60.1438 57.6812L62.6081 57.7008C63.4293 57.6883 64.2499 57.6366 65.0705 57.6069C68.3511 57.4095 71.6088 56.9362 74.8085 56.192L76.0041 55.8991C76.4025 55.801 76.803 55.7109 77.194 55.5856L79.5515 54.8809L81.8722 54.0664C82.6411 53.783 83.3929 53.4556 84.1539 53.153C87.1687 51.8736 90.0713 50.3487 92.8321 48.5942C93.5093 48.1381 94.2082 47.7129 94.8678 47.2326L96.8412 45.7845C98.1167 44.7961 99.3407 43.7441 100.508 42.6326C101.604 41.5318 102.503 40.329 102.923 39.0246C103.352 37.7071 103.323 36.2852 102.842 34.9856C102.315 33.6107 101.497 32.3638 100.442 31.3289C99.349 30.2295 98.1187 29.273 96.7811 28.4825C95.4341 27.6719 94.001 27.011 92.5078 26.512C91.7359 26.2586 90.9672 25.9966 90.1821 25.785C89.4048 25.5484 88.6127 25.3637 87.824 25.168C86.2382 24.8107 84.6405 24.4976 83.0245 24.2956C82.2195 24.1766 81.4075 24.1051 80.5982 24.0161C80.193 23.976 79.7856 23.9546 79.3795 23.9228C78.9732 23.8929 78.567 23.8606 78.1591 23.8502C70.9588 23.505 63.5599 24.5774 56.4952 26.5853C49.5192 28.6084 42.7926 31.3966 36.4402 34.8982C31.4756 37.6081 26.7069 40.6851 22.5083 44.3948C20.4132 46.2413 18.485 48.2659 16.7458 50.4455C15.0178 52.6139 13.5519 54.9755 12.3782 57.482C10.0583 62.4842 9.01563 68.1085 9.70516 73.5233C10.0536 76.2215 10.9032 78.8324 12.211 81.2239C13.5317 83.6128 15.2499 85.7635 17.2932 87.5852C19.359 89.4231 21.6525 90.9928 24.1183 92.2564C26.6041 93.5366 29.2038 94.5867 31.8843 95.393C34.5771 96.2139 37.3291 96.8301 40.1163 97.2363L42.2155 97.5501C42.9153 97.6531 43.6231 97.7003 44.3262 97.7785L46.4386 97.9875L48.5596 98.102C54.2233 98.377 59.9004 98.1279 65.5174 97.3579C71.1369 96.5648 76.6889 95.3573 82.1272 93.7456C84.1562 93.1731 86.1532 92.4911 88.153 91.8181L91.1268 90.7305C92.1166 90.3638 93.0903 89.9529 94.0729 89.5663C95.0583 89.1861 96.0232 88.7549 96.9926 88.3348C97.9631 87.9166 98.9315 87.4938 99.8888 87.0504C101.802 86.1646 103.681 85.2303 105.5 84.2139C109.129 82.1774 112.538 79.791 115.323 76.8382C116.016 76.1079 116.669 75.3412 117.278 74.5414C117.878 73.737 118.431 72.8999 118.935 72.0341C119.948 70.3176 120.726 68.4753 121.249 66.5556C121.769 64.6674 121.978 62.7086 121.87 60.7543C121.739 58.822 121.259 56.9287 120.454 55.1643C119.633 53.3772 118.528 51.7326 117.181 50.2937C115.819 48.828 114.276 47.5387 112.589 46.4565C110.894 45.3635 109.078 44.4669 107.176 43.784C105.246 43.1016 103.257 42.5952 101.233 42.271C97.1639 41.5979 92.9639 41.5391 88.7563 41.756C86.8828 41.8559 84.986 41.9978 83.1163 42.1904C82.1772 42.2717 81.2476 42.3986 80.3138 42.5058C79.3843 42.6309 78.4559 42.7634 77.5319 42.912C73.8586 43.4797 70.2519 44.4111 66.766 45.6921C65.9161 46.0374 65.0536 46.3598 64.239 46.7702C63.8298 46.971 63.4043 47.1458 63.0077 47.367L61.8151 48.0262C61.4076 48.2318 61.0392 48.493 60.6577 48.7351C60.2819 48.9849 59.8891 49.2137 59.5261 49.4794C58.7961 50.0031 58.0947 50.5649 57.4249 51.1625C57.0965 51.466 56.7498 51.7527 56.4344 52.0686L55.5231 53.0492C55.3743 53.2153 55.2103 53.3692 55.0736 53.5449L54.6666 54.0748L53.8523 55.1339C52.852 56.5403 52.1237 58.1185 51.7043 59.7884C51.2859 61.348 51.3844 62.9997 51.9853 64.4996C52.6076 65.9357 53.8084 67.1014 55.2744 67.9892C58.2256 69.7786 62.0132 70.5175 65.6672 71.2719C73.0466 72.6859 80.6016 72.9651 88.0667 72.0998C91.7962 71.6847 95.4893 70.9941 99.1151 70.0336C100.016 69.7743 100.926 69.5456 101.819 69.2621L104.491 68.3893L107.123 67.404C107.994 67.0597 108.85 66.6775 109.715 66.3204C109.929 66.2288 110.152 66.1405 110.358 66.0465L110.964 65.7602C111.364 65.5619 111.754 65.3493 112.138 65.1282C112.891 64.6928 113.599 64.1858 114.252 63.6144C114.865 63.0892 115.384 62.4656 115.789 61.7698C116.148 61.1522 116.312 60.4421 116.259 59.7312C116.203 59.0306 115.936 58.3628 115.494 57.8138C115 57.2094 114.378 56.7196 113.672 56.3789C112.901 55.9971 112.085 55.7104 111.243 55.5251C111.028 55.4761 110.81 55.4431 110.596 55.3791C110.375 55.3502 110.156 55.3119 109.935 55.2898C109.489 55.2404 109.052 55.2062 108.595 55.1944C101.108 54.9773 93.7432 57.1065 87.5481 61.2791C86.7861 61.8063 86.024 62.3467 85.341 62.9236C84.6545 63.512 84.0116 64.1485 83.4171 64.8282C82.8363 65.5089 82.3129 66.2358 81.8522 67.0015C81.417 67.7569 81.0718 68.56 80.8237 69.3945C80.6021 70.1996 80.5344 71.0387 80.6241 71.8686C80.6617 72.0683 80.6731 72.2744 80.7271 72.4701L80.9043 73.0536C80.9724 73.245 81.0759 73.424 81.1576 73.6112C81.241 73.798 81.3402 73.9774 81.4542 74.1476C82.3577 75.5279 83.9071 76.4989 85.584 77.1905C86.2575 77.4683 86.9469 77.7213 87.6623 77.9393C88.3774 78.1525 89.0809 78.3996 89.8015 78.5852C91.2351 78.9815 92.6778 79.3189 94.1297 79.5972C97.0127 80.1408 99.9336 80.4644 102.867 80.565C108.601 80.721 114.335 80.2346 119.959 79.1149C131.022 76.9528 141.258 73.2402 150.732 69.4572C155.084 67.6927 157.146 66.9191 156.922 67.2539C156.689 67.5677 154.19 69.024 149.242 71.3672C147.486 72.1861 145.71 72.9956 143.911 73.7814C143.014 74.1819 142.097 74.5418 141.181 74.9105C140.267 75.2837 139.34 75.6333 138.414 75.9923C134.699 77.3988 130.894 78.7003 126.99 79.7786C125.032 80.2973 123.064 80.8048 121.064 81.2121C120.07 81.4378 119.06 81.6031 118.057 81.8005C117.045 81.9566 116.039 82.1489 115.02 82.2725C112.99 82.5727 110.937 82.7456 108.882 82.8838C106.824 82.9839 104.759 83.0339 102.694 82.9539C99.2692 82.8488 95.862 82.4298 92.5154 81.7025C91.6752 81.5135 90.8322 81.3328 90.0027 81.093L88.7531 80.7541L87.5176 80.3632C85.7827 79.8702 84.1156 79.1674 82.554 78.2704C81.7053 77.7722 80.9321 77.1572 80.2575 76.4438C79.9102 76.0647 79.5993 75.6544 79.3286 75.2182C79.1909 74.9991 79.0689 74.7706 78.9635 74.5345C78.8438 74.305 78.7389 74.0681 78.6495 73.8254C78.3014 72.8504 78.1395 71.8197 78.1719 70.786C78.2306 69.8 78.4288 68.8271 78.7607 67.8958C79.0825 67.0094 79.4975 66.1591 79.9988 65.3588C80.4816 64.5778 81.0254 63.8355 81.625 63.1386C81.9325 62.8041 82.2238 62.4525 82.5522 62.1396L83.0345 61.6595L83.5401 61.2043C83.8704 60.8935 84.2379 60.6225 84.5873 60.3324L85.6455 59.5538C85.6677 59.518 85.6891 59.4843 85.7191 59.4425Z" fill="#6633FF" fill-opacity="0.1"/>
</svg>
